# xmcd CD database file
#
# Track frame offsets:
#	150
#	13277
#	28068
#	40800
#	53256
#	69416
#	85267
#	102604
#	115638
#	127376
#	141815
#	150332
#	166204
#	180350
#	188652
#	205459
#
# Disc length: 3205 seconds
#
# Revision: 7
# Processed by: cddbd v1.5.2PL0 Copyright (c) Steve Scherf et al.
# Submitted via: CDex 1.51
#
DISCID=d30c8310
DTITLE=Die Prinzen - Hardchor
DYEAR=2004
DGENRE=Pop
TTITLE0=Zu Dir, Zu Mir
TTITLE1=Unspektakulär
TTITLE2=Glücklich
TTITLE3=Bevor
TTITLE4=Wir Woll'n Doch Alle Nur Das Eine
TTITLE5=Sterne
TTITLE6=Wenn Du Weinst
TTITLE7=Locker Bleiben
TTITLE8=Ich Bring Dich Ganz Groß Raus
TTITLE9=Ich Mag Frauen
TTITLE10=Shampoo and Conditioner
TTITLE11=Guru
TTITLE12=Unsicherheit Macht Sich Breit
TTITLE13=Revolution
TTITLE14=Demonstrieren Geh'n
TTITLE15=Multimedia-Track
EXTD=YEAR: 2004
EXTT0=
EXTT1=
EXTT2=
EXTT3=
EXTT4=
EXTT5=
EXTT6=
EXTT7=
EXTT8=
EXTT9=
EXTT10=
EXTT11=
EXTT12=
EXTT13=
EXTT14=
EXTT15=
PLAYORDER=
